<svg width="88" height="75" viewBox="0 0 88 75" fill="none" xmlns="http://www.w3.org/2000/svg">
<path fill-rule="evenodd" clip-rule="evenodd" d="M21.2837 1.99699C21.523 2.23637 21.7437 2.49269 21.9441 2.76363L33.1272 16.0911H54.3402L65.5408 2.74273C65.7371 2.4795 65.9525 2.23021 66.1857 1.99699C66.8188 1.36387 67.5705 0.861647 68.3977 0.519002C69.2249 0.176357 70.1115 0 71.0069 0C71.9023 0 72.7889 0.176357 73.6161 0.519002C74.4433 0.861647 75.1949 1.36387 75.8281 1.997C76.4612 2.63012 76.9634 3.38175 77.3061 4.20897C77.6487 5.03619 77.8251 5.92279 77.8251 6.81817L71.0069 6.81817H70.9836L71.0059 6.83688L59.1138 21.0094L59.1024 20.9999C58.4885 21.5915 57.7688 22.063 56.9805 22.3895C56.2375 22.6973 55.4465 22.8709 54.6444 22.903V22.9093H32.8263V22.9031C32.0239 22.871 31.2328 22.6974 30.4896 22.3895C29.7007 22.0627 28.9806 21.5908 28.3664 20.9987L28.3536 21.0094L16.4625 6.83808V40.7415C16.5522 33.2876 22.6226 27.2727 30.0978 27.2727C35.8982 27.2727 40.8527 30.8941 42.8236 35.9994C43.1715 35.9474 43.525 35.9221 43.8811 35.9246C44.1407 35.9265 44.3986 35.9432 44.6538 35.9742C46.6313 30.8822 51.579 27.2727 57.3698 27.2727C64.8739 27.2727 70.9622 33.334 71.0059 40.8278V6.83688V6.81839H77.8241V47.7272C78.2689 47.7272 78.7148 47.6838 79.1553 47.5961C80.4779 47.3331 81.6928 46.6837 82.6464 45.7302L87.4675 50.5513C85.5604 52.4584 83.1307 53.7571 80.4855 54.2833C79.3208 54.515 78.1374 54.5923 76.9648 54.5182C76.8739 54.8716 76.7759 55.2234 76.6709 55.5732C77.2473 55.6221 77.8276 55.6344 78.408 55.6095C80.1953 55.5328 81.95 55.1048 83.5719 54.3499L86.4546 60.5437C84.0194 61.6772 81.3847 62.3198 78.701 62.435C77.0414 62.5063 75.3831 62.3749 73.7623 62.0466C72.6533 63.8444 71.3364 65.5116 69.8358 67.0122C67.3033 69.5447 64.2967 71.5536 60.9879 72.9242C57.679 74.2948 54.1326 75.0002 50.5511 75.0002V75H36.917V75.0002C33.3355 75.0002 29.7891 74.2948 26.4802 72.9242C23.1713 71.5536 20.1648 69.5447 17.6323 67.0122C16.1316 65.5115 14.8147 63.8443 13.7056 62.0464C12.2378 62.3439 10.7382 62.4799 9.23368 62.4497C6.5481 62.396 3.89941 61.8137 1.43884 60.7363L4.17914 54.4782C5.81788 55.1957 7.58191 55.5835 9.37051 55.6193C9.84745 55.6289 10.3236 55.6134 10.7972 55.5731C10.6921 55.2233 10.5941 54.8716 10.5032 54.5181C9.3305 54.5923 8.14689 54.515 6.98202 54.2833C4.33683 53.7571 1.90707 52.4584 0 50.5513L4.82117 45.7302C5.77471 46.6837 6.98959 47.3331 8.31218 47.5961C8.753 47.6838 9.19919 47.7273 9.64433 47.7272V6.81839H16.4625V6.83604L16.4838 6.81817H16.4625L9.64433 6.81817C9.64433 5.92279 9.82068 5.03619 10.1633 4.20897C10.506 3.38175 11.0082 2.63012 11.6413 1.997C12.2744 1.36387 13.0261 0.861647 13.8533 0.519002C14.6805 0.176357 15.5671 0 16.4625 0C17.3579 0 18.2445 0.176357 19.0717 0.519002C19.8989 0.861647 20.6505 1.36387 21.2837 1.99699ZM45.4359 47.5121C47.7616 51.7063 52.2341 54.5453 57.3698 54.5453C61.4429 54.5453 65.0989 52.7595 67.5976 49.9282C68.4358 50.8787 69.4018 51.707 70.4671 52.3898C70.2147 53.4683 69.8744 54.527 69.4486 55.5551C68.4206 58.0368 66.914 60.2917 65.0146 62.1911C63.1152 64.0904 60.8603 65.5971 58.3787 66.625C55.8976 67.6527 53.2385 68.1818 50.5531 68.182V68.1819H36.9168V68.182C34.2307 68.182 31.571 67.6529 29.0894 66.625C26.6077 65.5971 24.3528 64.0904 22.4535 62.1911C20.5541 60.2917 19.0474 58.0368 18.0195 55.5551C17.5936 54.5269 17.2533 53.4681 17.0008 52.3895C18.066 51.7068 19.0319 50.8785 19.87 49.9282C22.3687 52.7595 26.0247 54.5453 30.0978 54.5453C35.2337 54.5453 39.7064 51.7061 42.032 47.5115C42.5837 47.6539 43.1555 47.7276 43.735 47.7276C44.3137 47.7276 44.8849 47.654 45.4359 47.5121ZM50.5524 41.0105C50.6067 44.7293 53.6381 47.7272 57.3698 47.7272C61.1354 47.7272 64.188 44.6746 64.188 40.909C64.188 37.1434 61.1354 34.0908 57.3698 34.0908C53.6042 34.0908 50.5516 37.1434 50.5516 40.909V40.9095H50.5531C50.5531 40.931 50.553 40.9525 50.5528 40.974L50.5524 41.0105ZM36.916 40.909C36.916 37.1434 33.8634 34.0908 30.0978 34.0908C26.3322 34.0908 23.2796 37.1434 23.2796 40.909C23.2796 44.6746 26.3322 47.7272 30.0978 47.7272C33.8634 47.7272 36.916 44.6746 36.916 40.909ZM36.9168 59.3179C36.9168 57.4351 38.4431 55.9088 40.3259 55.9088H47.144C49.0268 55.9088 50.5531 57.4351 50.5531 59.3179C50.5531 61.2007 49.0268 62.727 47.144 62.727H40.3259C38.4431 62.727 36.9168 61.2007 36.9168 59.3179ZM35.5514 40.9092C35.5514 42.3558 34.9768 43.7432 33.9538 44.7661C32.9309 45.789 31.5435 46.3637 30.0969 46.3637C28.6503 46.3637 27.2629 45.789 26.24 44.7661C25.2171 43.7432 24.6424 42.3558 24.6424 40.9092H30.0969H35.5514ZM61.2271 44.7661C62.2501 43.7432 62.8247 42.3558 62.8247 40.9092H57.3702H51.9157C51.9157 42.3558 52.4903 43.7432 53.5133 44.7661C54.5362 45.789 55.9236 46.3637 57.3702 46.3637C58.8168 46.3637 60.2042 45.789 61.2271 44.7661Z" fill="#261B40"/>
</svg>
